<svg width="358" height="348" viewBox="0 0 358 348" fill="none" xmlns="http://www.w3.org/2000/svg">
<g clip-path="url(#clip0_2_44)">
<path d="M224.704 115.081C224.704 118.296 227.729 120.79 231.214 120.79C234.897 120.79 237.724 118.165 237.724 115.081C237.724 111.867 234.699 109.373 231.214 109.373C227.597 109.373 224.704 111.867 224.704 115.081Z" fill="#120F0A"/>
<path d="M302.038 120.79C305.72 120.79 308.548 118.165 308.548 115.081C308.548 111.867 305.523 109.373 302.038 109.373C298.355 109.373 295.528 111.998 295.528 115.081C295.33 118.165 298.355 120.79 302.038 120.79Z" fill="#120F0A"/>
<path d="M349.385 200.31C349.254 203.525 348.859 206.74 348.399 210.086C334.524 219.731 323.147 232.197 315.782 246.238L315.453 246.697C309.798 257.063 299.868 265.265 287.505 269.792C279.153 257.063 270.933 246.566 270.802 246.369L267.316 241.71L263.765 246.369C263.765 246.5 255.216 257.326 246.536 270.645C233.844 266.577 223.454 258.507 217.075 248.009C216.418 246.566 215.563 244.925 214.708 243.482C200.504 218.353 175.186 199.916 144.805 192.305C152.17 190.403 159.338 187.91 166.045 184.826L167.36 184.104C167.689 183.973 168.018 183.842 168.347 183.514C169.333 184.367 170.32 185.285 171.372 186.007C178.408 191.584 185.905 196.505 194.125 200.638C201.819 204.575 210.697 206.609 219.903 206.609C223.783 206.609 227.597 206.149 231.477 205.428L232.003 205.296C237.001 204.115 240.552 200.179 240.552 195.783C240.552 192.699 238.842 189.615 236.014 187.909L235.028 187.188C222.139 178.986 211.42 168.751 203.397 156.941C203.594 156.81 203.594 156.679 203.726 156.482C210.565 148.412 216.089 139.686 219.772 130.172C236.672 160.156 261.464 192.174 262.582 193.618L266.067 198.276L269.552 193.618C270.539 192.305 295.462 160.156 312.231 130.303C315.782 139.226 320.78 147.559 327.158 155.17L328.671 156.941C320.648 168.817 309.929 179.052 296.909 187.385L296.054 187.975C293.029 189.878 291.385 192.83 291.385 196.045C291.385 200.572 294.87 204.509 299.934 205.69L300.46 205.821C304.142 206.543 307.956 207.002 311.836 207.002C320.845 207.002 329.723 204.968 337.614 201.032C341.626 198.998 345.637 196.767 349.32 194.339C349.32 194.93 349.385 195.98 349.385 196.57V200.31ZM255.151 272.679C259.82 265.527 264.489 259.228 267.382 255.292C270.21 259.097 274.55 265.199 279.285 272.088C271.393 273.991 263.371 274.188 255.151 272.679ZM228.715 334.287H228.518C227.992 334.419 227.663 334.55 227.202 334.55L226.545 334.681C217.996 336.715 209.316 338.355 200.438 339.208C193.599 339.93 186.562 340.389 179.658 340.389C109.688 340.389 45.9666 302.532 20.5173 246.106C20.7146 245.844 20.8461 245.516 21.0434 245.253L21.5694 244.4C21.8982 243.941 22.0955 243.548 22.4243 243.088V242.957C22.9504 242.235 23.7395 240.923 23.7395 240.923C42.4813 213.301 77.137 196.045 113.963 196.045C154.143 196.045 190.114 215.466 207.672 246.762C208.526 248.206 209.184 249.715 210.039 251.158L210.236 251.421C221.284 269.857 243.051 281.405 266.988 281.405C291.253 281.405 313.809 269.136 324.528 250.109C324.528 249.977 324.725 249.846 324.725 249.649L324.857 249.518C330.052 239.873 337.22 230.819 346.097 223.077C332.945 275.894 288.294 318.475 228.715 334.287ZM10.719 212.907C21.8982 207.658 39.3248 203.131 60.2366 200.179C42.3497 208.643 27.0933 221.371 16.7032 236.724C14.0727 228.982 12.0342 220.912 10.719 212.907ZM9.00919 192.109C9.00919 188.041 9.14071 183.776 9.66679 179.511C22.3586 184.891 40.64 189.287 62.2094 192.109C40.64 194.995 22.3586 199.391 9.66679 204.706C9.20647 200.441 9.00919 196.242 9.00919 192.109ZM16.7032 147.69C16.9004 147.821 17.032 148.149 17.032 148.281L17.558 149.002C18.0841 149.593 18.4129 150.183 18.8733 150.774L19.3993 151.495C19.9254 152.217 20.583 152.939 21.0434 153.726L21.2406 153.989C21.8982 154.71 22.6216 155.563 23.2792 156.351L23.9368 157.072C24.4629 157.663 24.9232 158.253 25.4493 158.647C25.6466 158.91 25.9754 159.238 26.1069 159.369C26.633 159.959 27.0933 160.55 27.6194 160.943L28.277 161.534C28.9346 162.256 29.7895 162.977 30.4471 163.699L30.9732 164.158C31.6308 164.749 32.1569 165.339 32.8145 165.733C33.1433 165.995 33.3406 166.192 33.6694 166.455C34.1954 166.914 34.8531 167.505 35.3791 167.898L36.234 168.62C36.8916 169.21 37.7465 169.801 38.4041 170.391L38.7329 170.654C39.5878 171.244 40.3769 171.966 41.2318 172.557L42.0867 173.147C42.7443 173.606 43.2704 174 43.928 174.459C44.2568 174.59 44.5856 174.919 44.7829 175.05C45.4405 175.509 46.0981 175.968 46.7557 176.362L47.4133 176.821C48.2682 177.412 49.2546 178.002 50.1095 178.462L50.7671 178.724C51.4247 179.183 52.2796 179.577 52.9372 180.036L53.9236 180.627C54.5812 181.086 55.2388 181.348 55.9622 181.676L56.8171 182.136C57.6719 182.595 58.6583 182.989 59.5132 183.448L59.7105 183.579C59.9078 183.71 60.0393 183.71 60.2366 183.842C39.1275 181.02 21.7667 176.493 10.5217 171.244C11.9026 163.502 14.0727 155.432 16.7032 147.69ZM197.281 163.633C205.83 175.312 216.549 185.548 229.57 193.749L230.556 194.471C230.885 194.602 231.411 195.061 231.411 195.914C231.411 196.767 230.754 197.489 229.899 197.686L229.57 197.817C226.545 198.407 223.388 198.67 220.232 198.67C212.669 198.67 205.501 196.898 199.123 193.814C191.626 190.009 184.392 185.482 178.079 180.233C178.079 180.233 177.553 179.774 176.764 179.183C182.551 175.771 190.048 170.523 197.281 163.633ZM179.723 42.9751C186.562 42.9751 193.599 43.4344 200.504 44.1561C201.359 44.1561 203.989 44.4186 208 44.8778C211.486 48.0928 215.563 50.8484 219.706 53.0792C209.644 63.052 204.121 75.7149 204.121 88.9027C204.121 96.1855 207.803 106.88 214.839 120.79C203.266 158.253 165.979 185.285 121.986 188.172C117.645 187.91 113.108 187.91 108.571 188.041C106.4 188.041 104.033 187.91 101.863 187.778L100.679 187.647C100.153 187.647 99.8244 187.516 99.3641 187.516C99.0353 187.516 98.7065 187.385 98.3777 187.385L97.194 187.253C96.6679 187.253 96.3391 187.122 95.8788 187.122C95.55 187.122 95.2212 186.991 94.8924 186.991L93.7087 186.86C93.1826 186.86 92.8538 186.729 92.3935 186.597C91.8674 186.466 91.4071 186.466 90.6837 186.269L90.1576 186.138C89.1712 186.007 88.3163 185.679 87.3299 185.548L86.8038 185.416C86.475 185.285 85.949 185.285 85.6201 185.154C85.2913 185.023 84.9625 185.023 84.6337 184.891L83.6473 184.629C83.3185 184.498 82.7924 184.498 82.4636 184.367C82.1348 184.235 81.806 184.235 81.4772 184.104L80.4908 183.842C79.9647 183.71 79.6359 183.579 79.1756 183.382C78.8468 183.251 78.518 183.251 78.1892 183.12L77.2028 182.857C76.874 182.726 76.3479 182.595 76.0191 182.398C75.6903 182.267 75.493 182.267 75.1642 182.136L74.1778 181.676C73.849 181.545 73.3229 181.414 72.9941 181.217C72.6653 181.086 72.468 180.955 72.1392 180.955L71.2844 180.692C70.7583 180.561 70.4295 180.43 69.9692 180.102C69.6404 179.971 69.3115 179.839 69.1143 179.643L68.2594 179.38C67.7333 179.249 67.4045 178.921 66.9442 178.79C66.6154 178.658 66.2866 178.527 66.0893 178.33L65.2344 177.871C64.7083 177.74 64.3795 177.412 63.9192 177.281C63.5904 177.149 63.2616 177.018 62.9328 176.821L62.2752 176.559C61.7491 176.428 61.4203 176.1 60.96 175.837C60.6312 175.706 60.4339 175.509 60.1051 175.378L59.2502 174.919C58.9214 174.787 58.3953 174.459 58.0665 174.328C57.7377 174.197 57.4089 174.066 57.2116 173.738L56.554 173.278C56.2252 173.016 55.6991 172.819 55.3703 172.557C55.0415 172.425 54.7127 172.294 54.5154 171.966L53.8578 171.507C53.529 171.244 53.0029 171.048 52.6741 170.785C52.3453 170.654 52.0165 170.326 51.8193 170.195L51.2932 169.735C50.9644 169.473 50.4383 169.145 50.1095 168.882C49.7807 168.751 49.5834 168.423 49.2546 168.292L48.597 167.833C48.2682 167.57 47.9394 167.242 47.4133 167.111C47.0845 166.98 46.8872 166.652 46.5584 166.52L46.0323 166.061C45.7035 165.799 45.1775 165.471 44.8486 165.208C44.5198 164.88 44.191 164.749 43.8622 164.486L43.3362 164.224C43.0074 163.962 42.4813 163.633 42.1525 163.371C41.8237 163.109 41.6264 162.912 41.2976 162.649L40.7715 162.19C40.4427 161.928 40.1139 161.6 39.7851 161.337C39.6536 160.681 39.4563 160.55 39.1275 160.222L38.7987 159.959C38.2726 159.5 37.9438 159.238 37.615 158.778C37.2862 158.516 37.0889 158.188 36.7601 158.057L36.4313 157.597C36.1025 157.335 35.7737 156.876 35.4449 156.548C35.1161 156.285 34.9188 155.957 34.59 155.695L34.2612 155.235C33.9324 154.973 33.6036 154.514 33.2748 154.186C32.946 153.923 32.6172 153.595 32.4199 153.136L32.0911 152.873C31.7623 152.611 31.4335 152.152 31.1047 151.889C30.7759 151.627 30.6444 151.167 30.2498 150.905L30.0525 150.774C29.7237 150.314 29.3949 149.921 29.0661 149.462C28.7373 149.133 28.54 148.74 28.2112 148.412L28.1455 148.281C27.8167 147.821 27.4879 147.428 27.1591 146.968C26.8303 146.509 26.5015 146.115 26.3042 145.787L26.1069 145.656C25.7781 145.197 25.5808 144.934 25.252 144.475C24.9232 144.016 24.7259 143.753 24.3971 143.294C24.0683 142.704 23.7395 142.31 23.4107 141.851C23.0819 141.391 22.8846 140.998 22.5558 140.538C22.227 140.079 22.0298 139.686 21.701 139.226C21.3722 138.767 21.1749 138.373 20.8461 137.914C20.8461 137.783 20.7146 137.652 20.7146 137.455C45.8351 81.1606 109.754 42.9751 179.723 42.9751ZM200.438 8.20136C212.472 9.6448 223.52 14.8937 231.543 23.2919C236.212 28.1471 239.434 33.5271 241.407 39.3665C235.883 41.4005 230.885 44.3529 226.15 47.6991C220.824 45.2059 215.957 41.7285 212.078 37.595C204.121 29.5249 199.978 18.8959 200.438 8.20136ZM242.459 63.5769C241.933 65.1516 236.803 80.3733 236.08 90.7398C234.765 110.882 245.089 132.009 264.357 148.674L267.382 151.299L270.407 148.674C288.82 132.862 297.829 112.129 295.199 91.7896C293.818 81.2918 287.636 65.8733 286.979 64.1674C285.137 58.0656 284.611 51.5701 285.664 45.2715C306.049 52.2919 319.793 69.5475 319.793 88.8371C319.793 111.538 277.312 169.867 266.264 184.629C255.151 169.932 212.669 111.538 212.669 88.9027C212.669 71.0566 224.572 54.7195 242.788 46.7805C243.971 52.4887 243.774 58.328 242.459 63.5769ZM244.629 91.3959C245.287 81.4887 250.679 65.8077 250.81 65.6765L251.008 65.414C252.652 58.5249 252.849 51.2421 251.337 44.2217C259.688 42.0566 268.763 41.7285 277.443 43.3688C276.128 50.9796 276.589 58.8529 278.759 66.4638L278.956 66.7262C279.285 67.448 285.466 82.9321 286.847 92.905C289.017 109.701 281.981 127.154 267.645 140.735C251.797 126.038 243.643 108.192 244.629 91.3959ZM296.646 23.095C304.537 14.8937 315.585 9.6448 327.75 8.20136C328.276 18.8959 324.068 29.1312 316.242 37.4638C312.888 41.0068 309.074 43.8937 304.668 46.3869C299.473 42.8439 293.621 39.957 287.439 38.0543C289.478 32.4774 292.437 27.4909 296.646 23.095ZM336.496 134.109L336.825 134.699C337.154 135.552 337.68 136.274 338.009 137.192C338.338 138.045 338.864 139.095 339.193 139.948C342.349 147.428 344.914 155.17 346.558 163.043C333.34 151.758 323.147 136.405 317.952 120.33C319.596 116.984 321.108 113.9 322.489 110.817C327.948 118.296 332.616 126.038 336.496 134.109ZM349.517 183.973C344.519 187.647 338.995 190.993 333.274 193.749C326.895 196.964 319.53 198.604 312.165 198.604C309.008 198.604 305.786 198.342 302.827 197.751L302.498 197.554C301.512 197.423 300.788 196.701 300.788 195.783C300.788 195.192 301.117 194.602 301.775 194.208L302.63 193.618C315.848 185.285 326.698 175.05 335.247 163.371C342.086 169.932 348.596 174.656 348.596 174.656C348.596 174.656 349.188 178.986 349.517 183.973ZM358 189.353C357.671 161.271 350.701 137.192 336.496 115.672C336.496 115.672 332.156 109.111 325.975 101.631C325.975 101.631 328.342 92.5769 328.342 89.0339C328.342 74.9932 322.161 61.6742 311.113 51.5701C315.453 48.9457 319.333 45.862 322.818 42.3846C333.34 31.5588 338.075 17.8462 336.036 3.80543L335.51 0.328054L331.433 0.459276C315.058 1.181 300.46 7.61086 289.938 18.4367C284.94 23.5543 281.258 29.5249 278.89 36.0204C269.026 34.1176 258.833 34.5769 249.101 36.8733C246.931 30.181 243.051 24.0136 237.724 18.4367C227.531 7.74208 212.472 1.181 196.427 0.459276L192.415 0L191.889 3.67421C190.377 15.2217 193.204 26.7692 200.241 36.5452C193.204 35.8235 186.036 35.3643 178.803 35.3643C141.648 35.3643 106.203 45.1403 75.8876 63.905C49.1231 80.4389 28.2112 102.812 15.1249 128.991L11.9684 135.749L10.5217 139.029C3.35378 156.285 0 173.738 0 192.109C0 210.545 3.68259 228.523 10.719 245.778C10.719 245.778 12.2314 249.452 12.6918 250.633C13.2179 251.814 15.0591 255.292 15.0591 255.292C28.1455 281.143 49.1888 303.385 75.8218 319.787C122.183 348 177.356 348 177.356 348C278.233 348 353.397 286.129 357.671 199.851C358.066 193.093 358 189.353 358 189.353Z" fill="#120F0A"/>
</g>
<defs>
<clipPath id="clip0_2_44">
<rect width="358" height="348" fill="white"/>
</clipPath>
</defs>
</svg>
